<svg id="Layer_1" data-name="Layer 1" xmlns="http://www.w3.org/2000/svg" viewBox="0 0 802.35 190.84"><defs><style>.cls-1,.cls-2{fill:#fff;}.cls-2,.cls-3{opacity:0.2;}</style></defs><path class="cls-1" d="M265.58,27.66c-6.44,0-13.21.33-16.52.33-3,0-9.77-.33-15.48-.33-1.62,0-2.34.23-2.34,1s.61,1,1.83,1a21.83,21.83,0,0,1,4.18.32c3.52.76,4.38,2.46,4.58,6.14.25,3.42.25,6.42.25,22.75v18.9c0,9.88,0,18.37-.54,22.88-.45,3.12-1,5.49-3.14,5.89a17.61,17.61,0,0,1-3.85.43c-1.28,0-1.71.36-1.71.87,0,.76.74,1.07,2.14,1.07,2.13,0,4.94-.22,7.4-.22s4.94-.09,6.11-.09c2.69,0,6.49.31,10.54.65s8.5.64,12.36.64c19.85,0,31-7.64,36-12.67a42.67,42.67,0,0,0,11.7-30c0-12.79-5-21.71-10.4-27.29C296.94,27.66,279,27.66,265.58,27.66Zm30.08,69.4c-6.45,5.57-13.77,7.71-24.71,7.71-8.46,0-12.65-2.24-14.06-4.3-.86-1.19-1.07-5.45-1.18-8.17-.12-2-.22-10.27-.22-21.68V57.1c0-8.49,0-17.84.1-21.49a1.93,1.93,0,0,1,1.3-2.14c.85-.44,4.83-.74,7-.74,8.4,0,20.64,1.27,30.49,10.73,4.62,4.4,10.33,13.2,10.33,26.83C304.68,81.36,302.54,91.13,295.66,97.06Z"/><path class="cls-1" d="M548,106.91a20.67,20.67,0,0,1-6.65-1.07c-3.26-1-4.32-4.08-5.26-10.82l-9.81-66.37c-.31-2.28-.95-3.35-1.9-3.35s-1.53.88-2.39,2.59L492.79,89.2l-29.3-60.55c-1.41-2.81-2.06-3.35-2.91-3.35s-1.51,1-1.82,2.8l-10.66,70c-.53,3.65-1.37,7.85-4.38,8.48a14,14,0,0,1-3.23.32l-.24,0-.29,0a21.62,21.62,0,0,1-4.51-.43c-2.25-.52-5.36-2-9.44-11.7-6.89-16.32-24.06-60.13-26.63-66-1.1-2.46-1.72-3.43-2.69-3.43s-1.72,1.19-3,4.3l-27,67.46c-2.16,5.37-4.17,9-9.11,9.63a25.9,25.9,0,0,1-3.34.22,1.73,1.73,0,0,0-.78.17,2.92,2.92,0,0,0-1.06-.17,46.58,46.58,0,0,1-5.47-.43c-3.21-.4-4-2.35-4.29-5.25-.42-4.63-.42-13.09-.42-23.52V58.81c0-16.33,0-19.33.19-22.75.23-3.79,1.09-5.6,4-6.14a18.32,18.32,0,0,1,3.24-.32c1.07,0,1.71-.2,1.71-1.06,0-.65-.86-.88-2.23-.88-4.09,0-10.43.33-13.1.33-3.12,0-9.91-.33-14-.33-1.72,0-2.57.23-2.57.88,0,.86.65,1.06,1.69,1.06A15.21,15.21,0,0,1,325,30c2.37.54,3.45,2.36,3.68,6,.2,3.42.2,6.42.2,22.75v18.9c0,10.43,0,18.89-.54,23.42-.31,3.11-1,5-3.09,5.35a18,18,0,0,1-3.87.43c-1.29,0-1.74.36-1.74.87,0,.76.78,1.07,2.15,1.07,4.29,0,11.08-.31,13.55-.31,2.89,0,9.66.31,16.74.31a3.46,3.46,0,0,0,1.35-.22,3.68,3.68,0,0,0,1.55.22c5.56,0,11.48-.31,12.69-.31,3.31,0,7.92.31,11.36.31,1.17,0,1.85-.22,1.85-1.07,0-.64-.33-.87-1.63-.87h-1.61c-3.33,0-4.28-1.36-4.28-3.31a20.71,20.71,0,0,1,1.6-6.54l5.79-15.37c.22-.66.44-.86,1-.86h23.95a1,1,0,0,1,1.05.76l8.62,22.76a1.77,1.77,0,0,1-.94,2.48c-1.12.08-1.54.31-1.54,1s1.3.76,3.24.85c8.57.22,16.43.22,20.29.22,1.5,0,2.57,0,3.31-.09a6.58,6.58,0,0,0,1,.09c3.41,0,8.57-.31,10.61-.31s6.77.31,11.26.31c1.64,0,2.6-.22,2.6-1.16,0-.55-.74-.78-1.62-.78a19.09,19.09,0,0,1-4.51-.54c-1.83-.41-3.23-1.36-3.23-3.41a41.4,41.4,0,0,1,.35-5l5.55-42.75h.45C466,63.22,472.4,76.73,473.35,79c1.3,3,9.78,19.45,12.35,24.38,1.74,3.21,2.78,5.38,3.77,5.38s1.51-1,4-6L516.87,54h.43l6.41,47.26c.45,3,.14,4.41-.52,4.61S522,106.48,522,107s.66,1,3.15,1.19c4.27.32,19.11.63,21.8.63,1.47,0,2.77-.31,2.77-1.16C549.72,107,549,106.91,548,106.91ZM403.67,75.46H383.9c-.41,0-.54-.33-.41-.75l9.86-26.43c.12-.42.34-1,.67-1s.41.55.51,1L404.2,74.8C404.31,75.13,404.2,75.46,403.67,75.46Z"/><path class="cls-1" d="M586.62,26.18c-32.21,0-44.36,23.71-44.36,42.08,0,19,12.48,42.1,43.29,42.1,27.29,0,44.47-19.43,44.47-44S613.38,26.18,586.62,26.18ZM590.06,105c-20.62,0-33-17.76-33-40.08,0-26.74,14.07-33.63,26.43-33.63,17.62,0,31.45,14.94,31.45,39C615,101.34,597.58,105,590.06,105Z"/><path class="cls-1" d="M790.76,39.91c-11.71-12.25-29.64-12.25-43.07-12.25-6.42,0-13.2.33-16.53.33-3,0-9.78-.33-15.49-.33a6.37,6.37,0,0,0-.8,0c-.31,0-.65,0-1,0-5.25,0-9.35.33-10.53.33-2.26,0-7.41-.33-13-.33-1.59,0-2.79.13-2.79,1,0,.62.42,1,1.72,1a17.72,17.72,0,0,1,5.7.64c2.57,1.06,3.53,3.12,3.64,9.67l1.06,48.23h-.51c-1.85-1.73-16.34-17.21-23.63-24.48-15.67-15.59-32-33.1-33.29-34.49-1.84-1.92-2.81-3.33-4-3.33s-1.39,1.49-1.39,3.64l-1,63.59c-.1,9.36-.52,12.48-3.32,13.3a17.74,17.74,0,0,1-4.85.54c-1.07,0-1.73.23-1.73.87,0,1,1,1.07,2.39,1.07,5.57,0,10.62-.31,11.59-.31,2,0,6.35.31,13.31.31,1.5,0,2.48-.22,2.48-1.07,0-.64-.65-.87-1.82-.87a16.92,16.92,0,0,1-5.59-.73c-2.16-.76-3.53-3.55-3.75-11.92l-1.17-45.11h.31c1.92,2,13.86,15.46,25.57,27.05,11.15,11,24.89,25.14,31.67,31.58,1.18,1.18,2.46,2.38,3.67,2.38,1,0,1.4-1,1.4-3.33l1.16-67.78c.11-6,1-8.26,4-9.13a11.75,11.75,0,0,1,3.22-.32,1,1,0,0,0,.32-.05,2.09,2.09,0,0,0,.42.05,21.39,21.39,0,0,1,4.19.32c3.57.76,4.42,2.46,4.64,6.14.22,3.42.22,6.42.22,22.75v18.9c0,9.88,0,18.37-.54,22.88-.45,3.12-1,5.49-3.11,5.89a18,18,0,0,1-3.86.43c-1.31,0-1.76.36-1.76.87,0,.76.76,1.07,2.16,1.07,2.16,0,4.94-.22,7.44-.22s5-.09,6.1-.09c2.71,0,6.46.31,10.54.65s8.48.64,12.33.64c19.88,0,31-7.64,36-12.67a42.62,42.62,0,0,0,11.7-30C801.18,54.41,796.14,45.49,790.76,39.91Zm-13,57.15c-6.47,5.57-13.77,7.71-24.74,7.71-8.47,0-12.67-2.24-14-4.3-.86-1.19-1.06-5.45-1.2-8.17-.11-2-.18-10.27-.18-21.68V57.1c0-8.49,0-17.84.07-21.49A1.93,1.93,0,0,1,739,33.47c.86-.44,4.84-.74,7-.74,8.35,0,20.6,1.27,30.51,10.73,4.6,4.4,10.3,13.2,10.3,26.83C786.8,81.36,784.64,91.13,777.79,97.06Z"/><path class="cls-1" d="M372.21,140.41V162.9h-2.48V140.41h-5.68v-2.25h13.81v2.25Zm21.68,22.49V152.85a8.7,8.7,0,0,0-.4-2.71,5.16,5.16,0,0,0-1.35-2.32,5.84,5.84,0,0,0-7.95,0,5.22,5.22,0,0,0-1.34,2.26,8.67,8.67,0,0,0-.37,2.59V162.9h-2.33V138.16h2.33V147h.06a6.24,6.24,0,0,1,5.63-2.81,7.56,7.56,0,0,1,6,2.45,9.16,9.16,0,0,1,2.06,6.25V162.9Zm23,0v-3.21h-.07a8,8,0,0,1-7.11,3.65,9.62,9.62,0,0,1-7-2.76,9.62,9.62,0,0,1,0-13.7,9.69,9.69,0,0,1,6.94-2.73,7.85,7.85,0,0,1,7.11,3.67h.07v-3.2h2.35V162.9Zm-2-14.41a6.93,6.93,0,0,0-5.22-2.23,7.19,7.19,0,0,0-5.37,2.15,7.41,7.41,0,0,0-2.12,5.4,7.15,7.15,0,0,0,2.14,5.32,7.29,7.29,0,0,0,5.35,2.11,7,7,0,0,0,5.22-2.21,7.26,7.26,0,0,0,2.11-5.25A7.4,7.4,0,0,0,414.92,148.49Zm-2.07-7L410,139.11,407,141.54h-3l4.84-4.18H411l4.78,4.18Zm4.5-6.1a2.84,2.84,0,0,1-.37.45l-.21.23-.67.66a4.88,4.88,0,0,0-.38.49,2.89,2.89,0,0,0-.34,1.41h-2.07v-.44a3.19,3.19,0,0,1,.45-1.61,5.16,5.16,0,0,1,.44-.59,6,6,0,0,1,.43-.42l.44-.43q.21-.23.39-.45a1.36,1.36,0,0,0,.26-.8,1.4,1.4,0,0,0-.42-1.08,1.44,1.44,0,0,0-1-.44,1.41,1.41,0,0,0-1.21.68,1.51,1.51,0,0,0-.21.56,9,9,0,0,0,0,1h-2.11V134a3.14,3.14,0,0,1,1.1-2.35,3.53,3.53,0,0,1,2.49-.93,3.39,3.39,0,0,1,2.47.91,3.17,3.17,0,0,1,1,2.32A2.67,2.67,0,0,1,417.35,135.44Zm30.73,27.46V152.31a7.17,7.17,0,0,0-1.12-4.24,4.45,4.45,0,0,0-3.86-1.81,4.39,4.39,0,0,0-3.83,1.81,7.1,7.1,0,0,0-1.14,4.24V162.9h-2.34V152.31a7.1,7.1,0,0,0-1.14-4.24,5,5,0,0,0-7.68,0,7,7,0,0,0-1.15,4.24V162.9h-2.33V144.62h2.33v2.11a5.5,5.5,0,0,1,5-2.58,6.53,6.53,0,0,1,6.13,3.51,7.34,7.34,0,0,1,11.57-1.24,8.12,8.12,0,0,1,1.91,5.61V162.9Zm39.49,0v-22h-.06l-9.25,22h-2.11l-9.19-22h-.06v22h-2.48V138.16h3.8l9,21.07,9-21.07h3.82V162.9Zm11.9,6.42H497l3.17-7-7.12-17.68h2.48l5.81,14.58,6.22-14.58h2.46Zm8.36-29.48a5.67,5.67,0,0,1-3.27,1.31,4.77,4.77,0,0,1-1.38-.21,12.37,12.37,0,0,1-1.23-.48l-1.12-.47a3.47,3.47,0,0,0-1.11-.21,3.28,3.28,0,0,0-2.26,1l-1.15-1.66a4.91,4.91,0,0,1,3.47-1.4,4.56,4.56,0,0,1,1.34.21,10.89,10.89,0,0,1,1.17.47.48.48,0,0,1,.15.07l.13.06.28.12.55.22a3.52,3.52,0,0,0,1.13.22,2.4,2.4,0,0,0,1.09-.3l.75-.42.27-.15Zm29.66,21a12.44,12.44,0,0,1-3.88,1.57,18.86,18.86,0,0,1-4.18.47h-7.21V138.16h7.21a17.64,17.64,0,0,1,4.18.49,12.74,12.74,0,0,1,3.88,1.55,12.3,12.3,0,0,1,0,20.66Zm-1.07-18.55a9.88,9.88,0,0,0-3.9-1.59,19.54,19.54,0,0,0-2.09-.26c-.61,0-1.33-.05-2.16-.05H524.7v20.26h4.1c.82,0,1.54,0,2.13-.07a14.42,14.42,0,0,0,2-.28,10.09,10.09,0,0,0,3.8-1.66,9,9,0,0,0,2.89-3.62,10.91,10.91,0,0,0,1-4.54A9.35,9.35,0,0,0,536.42,142.31Zm10.36.08v-4.23h2.33v4.23Zm0,20.51V144.62h2.33V162.9Zm22.91,0v-3.21h-.06a8,8,0,0,1-7.12,3.65,9.64,9.64,0,0,1-7-2.76,9.14,9.14,0,0,1-2.85-6.87,9,9,0,0,1,2.89-6.83,9.65,9.65,0,0,1,6.93-2.73,7.88,7.88,0,0,1,7.12,3.67h.06v-3.2H572V162.9Zm-2-14.41a6.93,6.93,0,0,0-5.22-2.23,7.22,7.22,0,0,0-5.37,2.15,7.41,7.41,0,0,0-2.12,5.4,7.15,7.15,0,0,0,2.14,5.32,7.29,7.29,0,0,0,5.35,2.11,7,7,0,0,0,5.22-2.21,7.22,7.22,0,0,0,2.11-5.25A7.36,7.36,0,0,0,567.73,148.49ZM600.9,162.9V152.31a7.17,7.17,0,0,0-1.13-4.24,5,5,0,0,0-7.69,0,7.1,7.1,0,0,0-1.14,4.24V162.9h-2.33V152.31a7.1,7.1,0,0,0-1.14-4.24,5,5,0,0,0-7.69,0,7.1,7.1,0,0,0-1.14,4.24V162.9H576.3V144.62h2.34v2.11a5.49,5.49,0,0,1,5-2.58,6.55,6.55,0,0,1,6.14,3.51,7.34,7.34,0,0,1,11.57-1.24,8.17,8.17,0,0,1,1.91,5.61V162.9Zm22.24-2.4a9.43,9.43,0,0,1-13.45,0,9.07,9.07,0,0,1-2.84-6.66,9.46,9.46,0,0,1,2.78-6.84,9,9,0,0,1,6.75-2.89,9.57,9.57,0,0,1,6.76,16.35Zm-1.62-12a7,7,0,0,0-10.28.08,7.54,7.54,0,0,0-2,5.31,7.21,7.21,0,0,0,2.1,5.18,6.86,6.86,0,0,0,5.13,2.21A6.78,6.78,0,0,0,621.6,159a7.62,7.62,0,0,0,2-5.34A7.21,7.21,0,0,0,621.52,148.46Zm21.72,14.44V152.85a9,9,0,0,0-.39-2.71,5.16,5.16,0,0,0-1.35-2.32,5.84,5.84,0,0,0-8,0,5.22,5.22,0,0,0-1.34,2.26,8.67,8.67,0,0,0-.37,2.59V162.9H629.5V144.62h2.34V147h.06a6.24,6.24,0,0,1,5.63-2.81,7.56,7.56,0,0,1,6,2.45,9.16,9.16,0,0,1,2.06,6.25V162.9Zm22.77,0v-3.21h-.07a8,8,0,0,1-7.11,3.65,9.62,9.62,0,0,1-7-2.76,9.6,9.6,0,0,1,0-13.7,9.69,9.69,0,0,1,6.94-2.73,8.07,8.07,0,0,1,7.11,3.61H666v-9.6h2.35V162.9Zm-2-14.41a6.94,6.94,0,0,0-5.22-2.23,7.19,7.19,0,0,0-5.37,2.15,7.41,7.41,0,0,0-2.12,5.4,7.15,7.15,0,0,0,2.14,5.32,7.29,7.29,0,0,0,5.35,2.11,7,7,0,0,0,5.22-2.21,7.26,7.26,0,0,0,2.11-5.25A7.4,7.4,0,0,0,664.05,148.49Z"/><path class="cls-2" d="M86.44,74.48s4.39,11.24-9.26,11.24-24.37-8.28-34.62-9.28a42.06,42.06,0,0,0-19,2.94S16.73,58.9,39.62,45.74C39.62,45.74,68.89,25.73,86.44,74.48Z"/><path class="cls-2" d="M87.15,74.48s-4.4,11.24,9.26,11.24,24.37-8.28,34.63-9.28a42.06,42.06,0,0,1,19,2.94S156.87,58.9,134,45.74C134,45.74,104.68,25.73,87.15,74.48Z"/><g class="cls-3"><path class="cls-1" d="M86.71,108.91s5.89-15-12.41-15S41.63,105,27.92,106.3a56.47,56.47,0,0,1-25.48-3.91S-6.68,129.82,24,147.46C24,147.46,63.19,174.24,86.71,108.91Z"/><path class="cls-1" d="M87.65,108.91s-5.88-15,12.41-15S132.71,105,146.44,106.3a56.47,56.47,0,0,0,25.48-3.91s9.14,27.43-21.56,45.07C150.36,147.46,111.18,174.24,87.65,108.91Z"/></g><path class="cls-2" d="M116.92,33.72C109.12,9.82,87.19,1.55,87.19,1.55s-22,8.27-29.75,32.17S65.24,61,73.53,65.42A48,48,0,0,1,87.19,76.63a47.82,47.82,0,0,1,13.65-11.21C109.12,61,124.72,57.62,116.92,33.72Z"/><path class="cls-2" d="M54.64,150.59c8.53,28.72,32.55,38.7,32.55,38.7s24-10,32.55-38.7-8.55-32.82-17.61-38.1A54.09,54.09,0,0,1,87.19,99a54.09,54.09,0,0,1-14.94,13.49C63.17,117.77,46.12,121.87,54.64,150.59Z"/><polygon class="cls-1" points="86.93 88.12 94.43 88.12 90.67 103.36 86.93 118.62 83.19 103.36 79.43 88.12 86.93 88.12"/><polygon class="cls-1" points="98.25 65.66 106.96 65.66 102.61 73.33 98.25 81.02 93.91 73.33 89.55 65.66 98.25 65.66"/><polygon class="cls-1" points="75.95 65.66 84.64 65.66 80.31 73.33 75.95 81.02 71.59 73.33 67.23 65.66 75.95 65.66"/><polygon class="cls-1" points="87.35 83.94 78.62 83.94 83.01 76.27 87.35 68.59 91.68 76.27 96.04 83.94 87.35 83.94"/><polygon class="cls-1" points="110.45 83.94 101.74 83.94 106.1 76.27 110.45 68.59 114.81 76.27 119.16 83.94 110.45 83.94"/><polygon class="cls-1" points="63.25 83.94 54.53 83.94 58.89 76.27 63.25 68.59 67.62 76.27 71.95 83.94 63.25 83.94"/><polygon class="cls-1" points="109 88.12 118.04 88.12 91.81 118.24 99.94 88.12 109 88.12"/><polygon class="cls-1" points="64.87 88.12 55.83 88.12 82.04 118.24 73.92 88.12 64.87 88.12"/><rect class="cls-1" x="196.04" y="25.3" width="2.67" height="138.04"/></svg>